<svg width="342" height="104" viewBox="0 0 342 104" fill="none" xmlns="http://www.w3.org/2000/svg">
<g clip-path="url(#clip0_0_172)">
<path d="M258.619 100.34H248.869V103.27H258.619V100.34Z" fill="#CDA050"/>
<path d="M325.969 78.8013V81.7313H315.639C315.269 81.7313 314.919 81.8912 314.609 82.2012C314.379 82.4312 314.269 82.7713 314.269 83.2113V83.2712C314.269 83.6712 314.379 84.0013 314.609 84.2513C314.939 84.5213 315.289 84.6613 315.639 84.6613H321.669C321.919 84.6613 322.149 84.6913 322.369 84.7513C322.589 84.8113 322.799 84.8613 323.009 84.9113C323.319 85.0213 323.609 85.1513 323.869 85.3313C324.129 85.5113 324.399 85.7213 324.669 85.9713C325.149 86.4513 325.479 87.0013 325.669 87.6213C325.769 87.8513 325.839 88.0712 325.869 88.2812C325.899 88.4913 325.939 88.7313 325.979 89.0013V95.0113C325.939 95.2413 325.899 95.4713 325.869 95.7113C325.839 95.9513 325.769 96.1712 325.669 96.3812C325.459 97.0512 325.129 97.6012 324.669 98.0312C324.399 98.2812 324.129 98.4912 323.869 98.6712C323.609 98.8512 323.329 98.9912 323.009 99.0912C322.639 99.2412 322.189 99.3112 321.669 99.3112H248.869V96.3812H321.609C321.959 96.3812 322.299 96.2413 322.609 95.9713C322.729 95.8013 322.819 95.6413 322.869 95.4713C322.919 95.3013 322.969 95.1313 323.009 94.9413V89.0513C322.969 88.8413 322.919 88.6613 322.869 88.5013C322.819 88.3413 322.729 88.1913 322.609 88.0513C322.319 87.7613 321.979 87.6113 321.609 87.6113H315.559C315.349 87.6113 315.129 87.6012 314.889 87.5612C314.649 87.5312 314.449 87.4713 314.279 87.3913C313.969 87.2613 313.679 87.1212 313.409 86.9512C313.139 86.7812 312.879 86.5813 312.629 86.3213C312.339 86.0713 312.119 85.8113 311.959 85.5312C311.799 85.2512 311.669 84.9513 311.569 84.6413C311.399 84.2013 311.319 83.7513 311.319 83.2913V83.1312C311.319 82.8612 311.339 82.6113 311.379 82.3913C311.419 82.1713 311.479 81.9413 311.569 81.7113C311.759 81.0613 312.109 80.5112 312.629 80.0612C312.879 79.8312 313.139 79.6312 313.409 79.4512C313.679 79.2712 313.969 79.1312 314.279 79.0312C314.449 78.9913 314.649 78.9413 314.889 78.8713C315.129 78.8113 315.349 78.7812 315.559 78.7812H325.989L325.969 78.8013Z" fill="#CDA050"/>
<path d="M280.949 80.4917C280.739 80.6817 280.549 80.8717 280.389 81.0717C280.219 81.2717 280.089 81.4817 279.979 81.7117C279.479 82.5217 279.229 83.4417 279.229 84.4617V93.4417H282.129V84.5817C282.129 83.8517 282.399 83.1917 282.939 82.5817C283.559 82.0017 284.239 81.7117 284.969 81.7117H288.149C288.499 81.7517 288.839 81.8317 289.159 81.9617C289.479 82.0817 289.769 82.2917 290.019 82.5817C290.289 82.8717 290.499 83.1817 290.639 83.5017C290.789 83.8217 290.869 84.1817 290.889 84.5817V84.6117H293.819V84.4517C293.799 83.9717 293.729 83.5017 293.619 83.0317C293.509 82.5617 293.319 82.1217 293.069 81.7017C292.919 81.4717 292.779 81.2617 292.629 81.0617C292.479 80.8617 292.309 80.6717 292.099 80.4817C291.929 80.2917 291.749 80.1317 291.539 79.9817C291.329 79.8317 291.109 79.6917 290.879 79.5417C290.049 79.1017 289.169 78.8417 288.259 78.7617H284.859C284.339 78.8017 283.859 78.8817 283.409 79.0117C282.959 79.1317 282.529 79.3117 282.109 79.5417C281.629 79.8317 281.239 80.1417 280.919 80.4817" fill="#CDA050"/>
<path d="M304.25 81.7113C305.04 81.7713 305.71 82.0613 306.25 82.5813C306.54 82.8713 306.75 83.1813 306.87 83.5013C306.99 83.8213 307.08 84.1813 307.12 84.5813V84.6413H298.32V84.5813C298.32 83.8113 298.6 83.1413 299.16 82.5813C299.7 82.0613 300.37 81.7713 301.16 81.7113H304.25ZM301.04 78.7812C300.54 78.8212 300.07 78.9013 299.62 79.0113C299.17 79.1213 298.74 79.3112 298.32 79.5612C298.09 79.7112 297.88 79.8513 297.7 79.9813C297.51 80.1213 297.32 80.2913 297.11 80.5013C296.92 80.6913 296.76 80.8813 296.61 81.0813C296.46 81.2813 296.32 81.4713 296.17 81.6613V81.7213C295.65 82.5713 295.39 83.5013 295.39 84.5013V87.8112C295.39 88.3112 295.46 88.7813 295.59 89.2313C295.73 89.6813 295.92 90.1112 296.17 90.5312C296.27 90.7612 296.41 90.9712 296.58 91.1712C296.75 91.3712 296.92 91.5613 297.11 91.7513C297.32 91.9413 297.52 92.1112 297.7 92.2812C297.89 92.4513 298.1 92.5813 298.32 92.6913C298.74 92.9413 299.17 93.1312 299.62 93.2712C300.07 93.4112 300.54 93.4713 301.04 93.4713H310.06V90.5413H301.16C300.39 90.5413 299.72 90.2612 299.16 89.7012C298.6 89.1812 298.32 88.5112 298.32 87.7012V87.6113H307.18C307.95 87.6113 308.62 87.3312 309.18 86.7712C309.72 86.2512 310.01 85.5812 310.05 84.7712V84.5212C310.03 84.0212 309.96 83.5413 309.83 83.0713C309.71 82.6013 309.52 82.1612 309.27 81.7412C309.15 81.5112 309 81.3012 308.83 81.1012C308.66 80.9012 308.5 80.7112 308.33 80.5212C308.14 80.3112 307.94 80.1413 307.74 80.0013C307.53 79.8613 307.32 79.7213 307.12 79.5813C306.7 79.3313 306.26 79.1513 305.79 79.0312C305.32 78.9213 304.85 78.8413 304.37 78.8013H301.03L301.04 78.7812Z" fill="#CDA050"/>
<path d="M275.569 78.7695L271.759 85.6095L268.009 78.7695H264.489L270.359 88.2195V93.4595H273.289V88.2195L279.159 78.7695H275.569Z" fill="#CDA050"/>
<path d="M248.85 78.77V81.7H254.75V93.44H257.68V81.7H263.52V78.77H257.68V70H254.75V78.77H248.85Z" fill="#CDA050"/>
<path d="M319.7 30.9402L325.31 59.8802H313.26L311.2 39.5002L297.69 59.8802H284.86L306.7 30.4702L301.41 0.410156H312.98L315.22 21.9202L329.97 0.410156H341.92L319.7 30.9402Z" fill="#CDA050"/>
<path d="M166.4 59.8817C162.47 59.8817 159.85 57.9017 158.82 54.2217C157.02 48.1217 160.01 40.2617 163.95 35.5017C166.74 32.1317 170.05 30.2617 173.87 30.2617H186.22L184.13 37.7717H181.55C180.25 37.7117 179.32 37.6817 178.84 37.6817C176.31 37.6817 174.8 38.1317 174.02 38.7517C171.51 40.6817 170.07 46.8417 170.2 49.9517C170.22 50.4117 170.26 52.3817 171.2 52.3817H183.08L190.55 25.5617C191.22 23.1517 191.31 21.7117 191.12 21.0117C190.89 20.3817 190.24 19.7717 188.15 19.7717H174.55L176.64 12.2617H193.24C198 12.2617 201.71 13.4417 203.02 16.6717C203.95 18.9317 203.52 22.5617 202.24 27.1417L193.13 59.8917H166.39L166.4 59.8817Z" fill="#CDA050"/>
<path d="M220.661 19.7602L213.311 46.1602C212.271 49.8802 212.581 51.3402 212.871 51.6602C213.431 52.3102 217.671 52.3802 218.351 52.3802H220.241L218.151 59.8902H210.401C199.671 59.8902 198.241 56.4002 200.861 46.9902L213.811 0.410156H226.031L222.741 12.2402H234.631L232.541 19.7502H220.651L220.661 19.7602Z" fill="#CDA050"/>
<path d="M254.011 19.0686C250.351 19.0186 248.241 19.7786 247.171 20.9186C246.481 21.6586 245.511 23.8486 244.361 27.9786L235.481 59.8786H223.261L232.651 26.1386C235.351 16.4186 242.531 11.5586 253.671 11.5586H261.831L259.741 19.0686H254.011Z" fill="#CDA050"/>
<path d="M255.44 59.8817C251.51 59.8817 248.89 57.9017 247.86 54.2217C246.06 48.1217 249.05 40.2617 252.99 35.5017C255.78 32.1317 259.09 30.2617 262.91 30.2617H275.26L273.17 37.7717H270.59C269.29 37.7117 268.36 37.6817 267.88 37.6817C265.35 37.6817 263.85 38.1317 263.06 38.7517C260.55 40.6817 259.11 46.8417 259.24 49.9517C259.26 50.4117 259.3 52.3817 260.24 52.3817H272.12L279.58 25.5617C280.25 23.1517 280.34 21.7117 280.15 21.0117C279.92 20.3817 279.27 19.7717 277.18 19.7717H263.59L265.68 12.2617H282.28C287.04 12.2617 290.75 13.4417 292.06 16.6717C292.99 18.9317 292.56 22.5617 291.28 27.1417L282.17 59.8917H255.43L255.44 59.8817Z" fill="#CDA050"/>
<path d="M141.301 59.8802L149.921 28.9002L132.531 59.8802H122.211L122.071 28.4802L113.341 59.8802H103.141L119.691 0.410156H132.671L132.631 40.1202L154.681 0.410156H167.851L151.311 59.8802H141.301Z" fill="#CDA050"/>
<path d="M91.7702 45.7803C86.7502 48.1003 80.9902 49.1803 76.5402 52.3603C67.8002 58.5403 68.3802 65.7803 62.6902 68.6303C62.6902 68.6303 49.4102 75.7903 37.5002 76.2703C35.9802 76.4403 35.0502 76.3903 34.6102 77.7803C34.6102 77.7803 33.0902 79.4803 46.7002 80.1903C43.9502 81.7503 45.1402 83.2403 46.3802 83.8003C49.4202 85.1303 54.2702 84.7803 58.8902 82.4003C61.6302 80.9903 64.2002 79.0203 66.0102 76.1103C62.9202 77.4803 59.7202 78.8703 56.7102 78.1303C55.5102 77.8303 55.7502 75.5803 58.9002 74.8003C63.5502 73.6503 68.4702 73.1303 72.6902 70.6103C77.0002 68.0203 79.5002 64.3203 79.4302 62.3603C77.6002 64.6803 75.2702 65.7303 74.5002 64.5403C73.3102 62.7503 74.4302 57.3003 77.8102 54.3303C81.9102 50.7103 82.7002 53.7803 81.3402 57.0403C83.2902 55.3803 84.2802 51.8503 86.7502 50.3903C91.7102 47.4803 96.7802 44.7203 100.19 39.6803C100.31 39.6603 100.53 40.0803 100.43 40.5603C101.03 39.6503 101.75 37.1003 101.75 36.3203C99.4802 40.3703 96.0602 43.7903 91.8002 45.7703" fill="#CDA050"/>
<path d="M23.24 43.9105C23.62 43.3905 23.62 42.9105 23.53 42.3805C23.15 40.2605 22.79 38.1405 22.35 36.0305C21.86 33.7105 21.28 31.4005 21.57 29.0105C21.68 28.1105 21.9 27.1605 22.32 26.3705C22.86 25.3505 23.65 24.4505 24.36 23.4805C24.2 23.5805 24.04 23.6505 23.92 23.7505C21.15 25.9805 18.38 28.2105 15.63 30.4705C15.05 30.9505 14.34 31.4505 14.08 32.1005C13.4 33.7705 12.92 35.5305 12.39 37.2605C11.82 39.1305 12.17 41.0805 12 42.9805C12 43.0705 12.04 43.1605 12.05 43.2005C12.49 42.7105 12.92 42.2305 13.35 41.7505C13.41 41.7805 13.47 41.8005 13.54 41.8305C13.54 42.3305 13.52 42.8305 13.54 43.3205C13.72 47.1305 14.26 50.8905 15.12 54.6105C15.88 57.9105 16.93 61.1005 18.85 63.9305C19.15 64.3705 19.45 64.8105 19.76 65.2505C19.8 65.2305 19.84 65.2005 19.88 65.1805C19.78 64.4305 19.65 63.6905 19.59 62.9405C19.54 62.2905 19.59 61.6305 19.56 60.9805C19.43 57.7605 19.47 54.5405 20.08 51.3705C20.6 48.6805 21.62 46.1605 23.24 43.9205" fill="#CDA050"/>
<path d="M19.1396 69.3417C19.1396 69.0617 18.9796 68.7817 18.8796 68.5017C18.3296 67.0317 17.8196 65.5417 17.1996 64.1117C16.9196 63.4717 16.3596 62.9517 16.0396 62.3217C14.3696 59.0317 13.1996 55.5317 11.8996 52.0917C11.7296 51.6417 11.4996 51.2117 11.2996 50.7617C11.2396 50.7717 11.1796 50.7917 11.1196 50.8017C10.7796 52.3017 10.5496 53.8317 10.0796 55.2917C9.11962 58.2917 9.29962 61.2717 10.1396 64.2117C10.5596 65.7017 11.2896 67.0917 11.8296 68.5517C11.9496 68.8917 11.8696 69.3017 11.8896 69.6917C11.5196 69.6617 11.1396 69.6517 10.7696 69.6017C10.6596 69.5817 10.5596 69.4717 10.4596 69.3917C10.2296 69.2017 9.99962 69.0017 9.76962 68.8017C9.71962 68.8317 9.66962 68.8617 9.62962 68.8917C9.65962 69.0717 9.64962 69.2717 9.71962 69.4317C10.1396 70.4617 10.5396 71.5117 11.0096 72.5217C12.1396 74.9417 13.8096 77.0717 14.7096 79.6217C14.9496 80.3117 15.1196 80.3217 15.7896 79.9517C17.2796 79.1217 18.2796 77.8317 19.0596 76.3617C19.1496 76.1917 19.0596 75.7117 18.9596 75.6717C18.1396 75.3817 18.0496 74.7217 18.0496 74.0317C18.0496 72.7817 18.3596 71.6217 18.9696 70.5217C19.1496 70.1917 19.1496 69.7317 19.1396 69.3417Z" fill="#CDA050"/>
<path d="M34.3601 22.9988C34.2001 22.4888 34.1501 21.9388 33.9401 21.4588C33.7201 20.9588 33.4701 20.3788 33.0701 20.0888C32.2701 19.5088 31.3401 19.1088 30.4801 18.6288C30.1001 18.4088 29.7401 18.1288 29.3401 17.9388C28.9301 17.7488 28.4501 18.0088 28.4601 18.3788C28.4901 19.0888 28.5301 19.7988 28.6101 20.5088C28.7301 21.6188 28.8701 22.7288 29.0501 23.8288C29.2201 24.8388 29.5201 25.7688 30.5401 26.1988C31.0601 26.4188 31.5501 26.6988 32.0301 26.9888C32.2601 27.1288 32.4801 27.3388 32.6201 27.5788C33.2801 28.6488 33.7001 29.8088 33.9701 31.0588C34.0401 31.3988 34.3101 31.8888 34.5701 31.9588C35.2401 32.1388 35.9601 32.1288 36.6601 32.1588C36.8301 32.1588 37.0101 32.0288 37.2001 31.9588C36.8901 30.9388 36.6301 29.9788 36.3201 29.0288C35.6701 27.0188 35.0101 25.0188 34.3601 23.0088" fill="#CDA050"/>
<path d="M47.3502 32.6695C47.6202 32.6295 47.9402 32.1795 48.0502 31.8495C48.4502 30.6395 49.0102 29.5295 49.7802 28.5395C49.9502 28.3195 50.1902 28.1395 50.4302 28.0195C50.9402 27.7795 51.4602 27.5595 52.0002 27.3995C53.0702 27.0795 53.4702 26.1895 53.7502 25.2095C54.0502 24.1395 54.3102 23.0495 54.5602 21.9595C54.7202 21.2695 54.8302 20.5595 54.9402 19.8595C55.0002 19.4895 54.5502 19.1795 54.1202 19.3195C53.7002 19.4595 53.3202 19.6995 52.9102 19.8795C51.9902 20.2695 51.0302 20.5595 50.1702 21.0395C49.7402 21.2795 49.4202 21.8295 49.1502 22.3095C48.8902 22.7595 48.7802 23.3095 48.5602 23.7995C47.7002 25.7295 46.8102 27.6395 45.9402 29.5595C45.5302 30.4695 45.1602 31.3895 44.7402 32.3695C44.9202 32.4695 45.0802 32.6195 45.2502 32.6295C45.9502 32.6795 46.6602 32.7695 47.3402 32.6695" fill="#CDA050"/>
<path d="M29.13 15.3285C29.13 15.3285 28.7 15.7885 29.37 16.2785C30.04 16.7585 34.11 19.5885 34.11 19.5885C34.11 19.5885 34.58 19.8985 34.95 21.0985C35.32 22.2985 37.58 30.2085 37.58 30.2085L37.61 30.2985C37.86 31.6585 39.23 32.7485 40.95 32.8485C42.66 32.9485 44.14 31.9985 44.54 30.6785L44.57 30.5985C44.57 30.5985 47.7 22.9885 48.2 21.8385C48.7 20.6885 49.21 20.4385 49.21 20.4385C49.21 20.4385 53.57 18.0885 54.28 17.6785C55 17.2685 54.62 16.7685 54.62 16.7685L51.53 11.4785L54.75 7.71853L48.97 5.54853C48.97 5.54853 46.6 4.76853 43.26 8.34853C42.72 9.28853 42.22 10.7285 42.17 10.8585C42.14 10.7285 41.8 9.23853 41.37 8.23853C38.45 4.30853 36.01 4.81853 36.01 4.81853L30.02 6.33853L32.8 10.4285L29.14 15.3485L29.13 15.3285Z" fill="#CDA050"/>
<path d="M41.7803 33.9193C41.5003 34.0593 41.2403 34.1193 40.9903 34.0993C40.7303 34.0993 40.4803 34.0093 40.2203 33.8293C39.3403 33.2393 38.3703 33.0793 37.3403 33.0993C35.7803 33.1293 34.2103 33.1393 32.5303 33.1593C32.8503 33.6093 33.0103 34.0793 33.6803 34.0293C34.0003 33.9793 34.3303 33.9593 34.6803 33.9793C36.3503 34.0693 37.6603 35.0293 37.6003 36.1193C37.5603 36.8393 36.9303 37.4293 36.0303 37.7293H36.0503C35.5803 37.8693 35.2303 38.2793 35.2003 38.7693C35.1703 39.3793 35.6303 39.9093 36.2703 40.0193H36.2903C37.6003 40.2193 39.0703 40.3793 40.6303 40.4693H40.6503C42.2103 40.5593 43.6903 40.5693 45.0203 40.5093H45.0403C45.6803 40.4793 46.2103 40.0093 46.2403 39.3893C46.2703 38.8993 45.9703 38.4493 45.5203 38.2493H45.5403C44.6803 37.8693 44.1203 37.2093 44.1603 36.4893C44.2203 35.3993 45.6303 34.5893 47.3003 34.6893C47.6503 34.7093 47.9803 34.7693 48.2903 34.8493C48.9503 34.9693 49.1603 34.5193 49.5303 34.1093C47.8603 33.8993 46.3103 33.7193 44.7603 33.5193C43.7403 33.3893 42.7503 33.4393 41.8203 33.9293" fill="#CDA050"/>
<path d="M54.1404 12.1908C54.3404 14.1808 56.1004 15.6908 58.2304 15.6908C58.3804 15.6908 58.5304 15.6908 58.6704 15.6708C59.4504 15.5908 60.2004 15.3108 60.8204 14.8608L60.8804 14.8108C61.9204 14.0108 63.2204 13.6208 64.8504 13.6208C66.6704 13.6208 68.7204 14.1008 70.7004 14.5708C72.6904 15.0408 74.7504 15.5308 76.6404 15.5508H76.7304C79.0404 15.5508 83.1304 14.5908 84.6004 8.19078L85.3804 4.80078L83.7004 7.85078C82.2404 10.5008 80.2904 11.9108 78.0704 11.9108C77.8304 11.9108 77.5804 11.8908 77.3304 11.8608C75.4904 11.6008 73.4604 10.7008 71.3004 9.74078C68.2404 8.38078 65.0704 6.97078 61.7104 6.97078C59.6404 6.97078 57.7604 7.50078 55.9804 8.59078L55.8804 8.65078C54.6704 9.47078 54.0004 10.8408 54.1404 12.2208" fill="#CDA050"/>
<path d="M8.92 11.73C10.4 11.73 11.98 11.54 13.5 11.36C15 11.18 16.55 10.99 17.97 10.99C20.36 10.99 22.03 11.53 23.23 12.69L23.29 12.75C23.86 13.27 24.57 13.63 25.34 13.8C25.65 13.87 25.96 13.9 26.27 13.9C28.22 13.9 29.85 12.65 30.23 10.85C30.52 9.49 30.01 8.06 28.9 7.11L28.82 7.06C26.78 5.49 24.51 4.72 21.87 4.72C18.99 4.72 16.17 5.61 13.44 6.48C11.19 7.19 9.07 7.86 7.21 7.92C4.7 7.99 2.6 6.32 1.32 3.23L0 0L0.4 3.46C1.15 10.05 5.17 11.43 7.49 11.67C7.93 11.71 8.41 11.74 8.92 11.74" fill="#CDA050"/>
<path d="M22.1403 20.1103C22.5003 20.0903 23.0803 20.0003 23.4403 19.9903C24.7003 19.5803 24.4703 19.6503 25.7303 19.2403L27.7303 15.0603C27.0403 15.3703 25.4303 15.4203 24.5303 15.3603C22.9703 15.2703 21.1203 14.8103 19.6203 15.0403C17.4103 15.3803 17.6203 16.3103 14.0903 17.0603C13.2603 17.3603 13.1203 17.9003 14.1603 18.0403C16.8303 18.8303 19.3703 20.1403 22.1403 20.1103Z" fill="#CDA050"/>
<path d="M69.5699 21.1502C70.6199 21.1202 70.5299 20.5702 69.7399 20.1802C66.3099 19.0302 66.6299 18.1302 64.4699 17.5502C63.0099 17.1602 61.1099 17.4102 59.5599 17.3202C58.6599 17.2702 57.0699 17.0502 56.4199 16.6602L57.9399 21.0302C59.1499 21.5802 58.9299 21.4802 60.1299 22.0402C60.4799 22.1002 61.0499 22.2502 61.3999 22.3102C64.1499 22.6602 66.8199 21.6402 69.5599 21.1502" fill="#CDA050"/>
<path d="M74.4298 32.8503C73.7298 34.2103 72.8098 35.3603 71.5498 36.2103C71.1198 36.5003 70.6098 36.6603 70.1598 36.8803C69.3598 35.9703 69.3798 35.2103 70.1598 34.1503C71.4798 32.3403 73.2598 31.0903 75.1898 30.0403C75.5698 29.8303 75.9698 29.6503 76.5298 29.3703C75.7598 30.6303 75.0298 31.7103 74.4298 32.8603M108.05 19.3603C106.16 19.6803 104.38 20.3203 102.66 21.1603C101.72 21.6203 100.74 22.0803 99.9498 22.7403C98.8898 23.6203 97.9898 24.6903 97.0298 25.6903C95.8198 26.9503 94.7398 28.3703 93.3898 29.4503C90.9598 31.4003 88.1498 32.7403 85.1198 33.5003C83.8198 33.8303 82.4498 33.8703 81.1098 33.9703C80.6298 34.0103 80.0498 33.8603 79.9998 33.2603C79.8598 31.6503 80.3398 30.1503 81.5998 29.1903C83.9998 27.3703 86.7698 26.3703 89.8198 26.2903C90.3998 26.2703 90.8898 26.1503 91.3098 25.7503C92.2498 24.8503 93.2098 23.9703 94.1598 23.0703C94.2498 22.9903 94.2798 22.8503 94.4098 22.6203C91.3498 24.0303 88.3698 25.0603 85.0798 23.7603C85.2098 23.5003 85.3398 23.2603 85.4698 23.0103C85.4398 22.9603 85.4098 22.9103 85.3898 22.8603C84.6198 23.1603 83.8498 23.4703 83.0698 23.7403C81.7298 24.2003 80.7498 25.2703 79.3598 25.7203C78.0998 26.1203 76.9698 26.9403 75.7898 27.5703C73.8298 28.6103 71.7498 29.2003 69.5198 29.0403C68.6698 28.9803 67.8198 28.7603 66.9998 28.5103C66.4598 28.3503 66.4298 27.9503 66.8498 27.5503C66.9698 27.4403 67.1198 27.3503 67.2598 27.2603C68.7298 26.3703 70.4198 26.1103 72.0498 25.7303C73.5998 25.3703 75.1398 25.0203 76.4398 24.0403C77.1598 23.5003 77.6898 22.8403 77.8298 21.8803C77.7198 21.9003 77.6798 21.9003 77.6398 21.9203C77.5698 21.9603 77.4998 22.0103 77.4398 22.0703C76.1898 23.2103 74.7198 23.9603 73.0298 24.0503C71.4298 24.1403 69.8198 24.1103 68.2098 24.0303C67.5098 23.9903 66.7798 23.7903 66.1498 23.4803C65.5398 23.1803 65.0098 23.2403 64.4598 23.4803C62.8598 24.1803 61.4198 25.1003 60.3698 26.5503C60.0698 26.9603 60.0198 27.2403 60.5098 27.5103C62.6098 28.6603 64.1698 30.4203 65.5198 32.3203C67.9498 35.7403 70.2098 39.2903 71.7998 43.2103C71.8198 43.2603 71.8898 43.2803 71.9798 43.3403C72.0598 43.2403 72.1398 43.1503 72.2098 43.0603C72.2598 42.9903 72.3298 42.9303 72.3498 42.8503C72.7498 41.5403 73.8498 40.9703 74.9498 40.4303C77.3898 39.2403 80.0298 38.7403 82.7098 38.4503C85.9898 38.1003 88.9898 37.0203 91.7498 35.2503C92.5998 34.7003 93.4198 34.1003 94.3698 33.4503C94.2698 33.6203 94.2398 33.7003 94.1898 33.7403C92.8198 34.9803 91.5398 36.3303 90.0698 37.4303C88.3198 38.7403 86.4198 39.8503 84.5998 41.0603C84.4298 41.1703 84.2998 41.3303 84.1498 41.4703C84.1898 41.5503 84.2298 41.6403 84.2698 41.7203C85.1998 41.5003 86.1598 41.3503 87.0698 41.0403C87.9598 40.7403 88.7998 40.2803 89.6698 39.8903C89.6998 39.9403 89.7398 39.9803 89.7698 40.0303C89.1598 40.5303 88.5898 41.1003 87.9198 41.5203C86.2798 42.5603 84.3798 42.8003 82.5098 43.1203C82.0098 43.2003 81.4598 43.1403 81.0098 43.3203C79.1198 44.0803 77.2298 44.8703 75.3898 45.7403C74.1598 46.3203 73.3198 47.2903 73.1198 48.7203C73.0398 49.2803 72.6598 51.6403 72.4098 52.1403C72.4098 52.1403 77.7498 49.4203 80.5798 48.2503C83.4098 47.0803 84.9498 46.6003 84.9498 46.6003C85.0198 46.6203 85.1198 46.6003 85.1998 46.5703C86.3198 46.1503 87.4598 45.7603 88.5598 45.2803C90.7998 44.3103 92.8098 42.9603 94.6898 41.4303C97.3098 39.3003 99.6698 36.9403 101.1 33.8103C101.34 33.2903 101.75 32.8203 101.57 32.1603C101.18 30.7403 101.41 29.3303 101.83 27.9703C102.18 26.8303 102.68 25.7203 103.22 24.6503C104.09 22.9103 105.3 21.4303 107.01 20.4403C107.6 20.1003 108.21 19.8003 108.81 19.4803C108.56 19.3303 108.33 19.3003 108.1 19.3403" fill="#CDA050"/>
<path d="M29.4103 51.9483C32.5303 46.9583 41.2103 42.5583 41.2103 42.5583C39.2703 42.3483 37.4303 42.1783 35.5903 41.9483C34.7803 41.8483 34.0803 41.2683 33.8403 40.6183C32.8103 37.7983 31.5103 35.1183 30.0003 32.5283C28.8403 30.5283 27.6603 28.5283 26.5003 26.5283C26.2803 26.1483 26.0903 25.6783 25.8503 25.2383C24.5203 27.1483 24.5103 30.5483 24.5103 30.5483C24.5103 30.5483 25.5303 36.6383 25.9803 38.6483C26.4303 40.6583 25.8103 41.3183 25.8103 41.3183C25.8103 41.3183 24.8603 43.7883 21.6303 52.1283C18.4703 63.3183 23.3303 70.8583 23.3303 70.8583C23.3303 70.8583 25.7503 56.1983 29.4003 51.9483" fill="#CDA050"/>
<path d="M45.7097 73.1283C47.5297 72.1983 53.6497 66.6883 56.6397 62.4783C59.6397 58.2683 59.3497 51.2383 59.3497 51.2383C47.7497 60.9783 27.1697 67.7283 27.1697 67.7283L27.1397 67.7783C27.0197 67.8783 26.5197 69.9383 26.4897 70.0883C26.2997 70.8683 26.1597 71.6583 25.9497 72.4283C25.8897 72.6583 25.7197 72.9683 25.5197 73.0483C23.8197 73.7683 22.5297 75.0783 21.0797 76.1583C20.6797 76.4483 20.5297 76.8383 20.4997 77.3483C20.4497 78.0483 20.4297 78.8383 20.0997 79.4183C19.0497 81.3083 17.5097 82.7883 15.8297 84.1183C14.1297 85.4683 12.3597 86.7183 11.0597 88.4983C10.7797 88.8883 10.4497 89.2483 10.0797 89.5483C9.54969 89.9883 8.90969 90.2983 8.41969 90.7783C6.89969 92.2783 5.87969 94.1283 4.88969 95.9883C4.36969 96.9683 3.93969 98.0083 3.51969 99.0383C3.30969 99.5483 3.41969 99.9983 3.95969 100.318C4.85969 100.858 5.71969 101.468 6.62969 101.998C7.21969 102.338 7.85969 102.588 8.39969 102.838L10.1997 103.188C10.5697 103.128 10.8797 103.108 11.1597 103.018C12.9797 102.428 14.8497 101.928 16.6097 101.178C18.5797 100.338 18.4597 100.908 18.6497 98.3983C18.7497 97.0583 18.9997 95.7183 19.1297 94.3783C19.1997 93.6283 19.3797 92.7783 19.1097 92.1383C18.8697 91.5683 18.8697 91.1783 19.1797 90.7783C19.8397 89.9383 20.4997 89.0983 21.2597 88.3583C22.4497 87.1983 23.6397 86.0283 24.9597 85.0383C26.7997 83.6783 28.7497 82.4783 30.6697 81.2283C31.0697 80.9683 31.2897 80.7283 31.1097 80.2283C30.8497 79.4983 31.0897 78.9783 31.6897 78.4283C32.4597 77.7283 33.0297 76.8183 33.6997 76.0183C33.8197 75.8683 33.9797 75.7083 34.1597 75.6383L34.7697 75.4483C37.3997 75.0783 43.8797 74.0683 45.6997 73.1383" fill="#CDA050"/>
<path d="M57.3903 25.5791L57.1203 25.8491C56.8703 26.2791 56.6603 26.6691 56.4303 27.0491C55.2003 29.0091 53.9603 30.9691 52.7303 32.9291C51.5703 34.7791 50.5203 36.6791 49.6003 38.6491C49.2603 39.3791 48.9403 40.1291 48.6303 40.8891C48.3703 41.5291 47.6503 42.0891 46.8403 42.1591C46.5603 42.1791 46.2803 42.2091 46.0003 42.2291H45.6403C45.6403 42.2291 36.3903 46.0591 32.7703 50.8091C29.9703 53.4991 27.4203 60.9991 26.0603 65.5691C26.0603 65.5691 26.0003 66.2191 26.9803 65.6291C27.1003 65.5591 27.3003 65.4291 27.5703 65.2591L27.6503 65.2391C31.3803 63.9491 49.4003 57.4491 59.6703 48.5491L61.0503 51.7091L61.1203 51.6191C61.6003 49.9491 62.0703 47.7891 62.1403 47.1791C62.2803 46.0291 64.2203 38.8291 57.3903 25.5391V25.5691V25.5791Z" fill="#CDA050"/>
<path d="M50.2402 71.21C50.2402 71.21 50.6902 72.92 61.5102 66.91C65.3002 64.8 65.0802 62.98 67.4102 59.69C71.2202 54.29 70.9502 49.72 70.9502 49.72C70.1002 37.76 62.0802 31.5 62.0802 31.5C62.0802 31.5 65.9702 43.52 63.4802 53.24C60.9902 62.96 50.2402 71.22 50.2402 71.22" fill="#CDA050"/>
</g>
<defs>
<clipPath id="clip0_0_172">
<rect width="341.92" height="103.27" fill="white"/>
</clipPath>
</defs>
</svg>
