<svg width="900" height="900" viewBox="0 0 900 900" fill="none" xmlns="http://www.w3.org/2000/svg">
<path d="M450 899.402C698.196 899.402 899.4 698.198 899.4 450.002C899.4 201.805 698.196 0.601562 450 0.601562C201.803 0.601562 0.599609 201.805 0.599609 450.002C0.599609 698.198 201.803 899.402 450 899.402Z" stroke="black" stroke-miterlimit="10"/>
<path d="M450 710.91C594.096 710.91 710.91 594.096 710.91 450C710.91 305.903 594.096 189.09 450 189.09C305.903 189.09 189.09 305.903 189.09 450C189.09 594.096 305.903 710.91 450 710.91Z" fill="black"/>
<path d="M678.15 314.88L775.49 277.68L700.52 373.89C688.76 388.3 671.18 396.69 652.88 396.75L602.9 396.88V499.17L525.07 599.05V445.26H501.39V629.43L448.75 696.98L396.11 629.43V445.26H372.43V599.05L294.6 499.17V396.88L244.62 396.75C226.32 396.69 208.74 388.3 196.98 373.9L122.01 277.69L219.34 314.89H678.18L678.15 314.88Z" fill="white"/>
</svg>
