<svg width="732" height="201" viewBox="0 0 732 201" fill="none" xmlns="http://www.w3.org/2000/svg">
<path d="M731 172.201C731 176.071 730.517 179.728 729.551 183.138C728.586 186.549 726.931 189.549 724.603 192.14C722.275 194.731 719.171 196.797 715.291 198.371C711.411 199.945 706.566 200.716 700.738 200.716H651.835C646.007 200.716 641.162 199.929 637.282 198.371C633.402 196.813 630.298 194.731 627.971 192.14C625.643 189.549 623.987 186.565 623.022 183.138C622.056 179.728 621.573 176.071 621.573 172.201V26.0384C621.573 18.1023 623.849 11.7894 628.419 7.0671C632.971 2.36116 640.213 0 650.111 0H702.514C712.412 0 719.637 2.34477 724.206 7.0671C728.758 11.773 731.052 18.1023 731.052 26.0384V172.201H731ZM667.82 35.1716C665.303 35.1716 664.044 36.4669 664.044 39.0413V161.396C664.044 162.871 664.285 163.937 664.768 164.577C665.251 165.233 666.372 165.544 668.113 165.544H684.132C685.874 165.544 686.995 165.216 687.478 164.577C687.96 163.937 688.202 162.871 688.202 161.396V39.0413C688.202 36.4669 686.943 35.1716 684.408 35.1716H667.82Z" fill="white"/>
<path d="M603.485 119.057C603.485 123.484 601.882 127.551 598.675 131.24C595.467 134.929 590.76 136.782 584.552 136.782L606.675 200.731H562.998L542.616 136.782H537.081V200.731H494.869V0.03125H574.93C584.828 0.03125 592.053 2.37602 596.623 7.09835C601.175 11.8043 603.468 18.1335 603.468 26.0697V119.09L603.485 119.057ZM537.116 35.17V104.382H557.79C560.498 104.382 561.86 103.004 561.86 100.233V39.3349C561.86 36.5638 560.498 35.1864 557.79 35.1864H537.116V35.17Z" fill="white"/>
<path d="M477.435 172.201C477.435 176.071 476.953 179.728 475.987 183.138C475.021 186.549 473.366 189.549 471.038 192.14C468.71 194.731 465.606 196.797 461.727 198.371C457.847 199.945 453.002 200.716 447.173 200.716H398.271C392.443 200.716 387.597 199.929 383.718 198.371C379.838 196.813 376.734 194.731 374.406 192.14C372.078 189.549 370.423 186.565 369.457 183.138C368.492 179.728 368.009 176.071 368.009 172.201V26.0384C368.009 18.1023 370.285 11.7894 374.854 7.0671C379.407 2.36116 386.649 0 396.547 0H448.949C458.847 0 466.072 2.34477 470.642 7.0671C475.194 11.773 477.487 18.1023 477.487 26.0384V172.201H477.435ZM414.256 35.1716C411.738 35.1716 410.479 36.4669 410.479 39.0413V161.396C410.479 162.871 410.721 163.937 411.204 164.577C411.686 165.233 412.807 165.544 414.549 165.544H430.568C432.309 165.544 433.43 165.216 433.913 164.577C434.396 163.937 434.637 162.871 434.637 161.396V39.0413C434.637 36.4669 433.379 35.1716 430.844 35.1716H414.256Z" fill="white"/>
<path d="M345.851 0.015625L356.335 37.3844H328.09V200.715H284.999V37.3844H256.771L267.825 0.015625H345.851Z" fill="white"/>
<path d="M193.299 175.808L189.523 200.715H147.018L185.16 0.015625H230.286L268.428 200.715H225.923L222.147 175.808H193.333H193.299ZM197.955 143.965H217.457L207.852 72.8183L197.955 143.965Z" fill="white"/>
<path d="M41.0566 106.039V200.715H0V0.015625H44.5397L67.5424 84.7225L90.5452 0.015625H135.378V200.715H94.3215V106.039L67.5424 186.318L41.0566 106.039Z" fill="white"/>
</svg>
